<?xml version="1.0" standalone="no"?>
<!DOCTYPE svg PUBLIC "-//W3C//DTD SVG 20010904//EN"
 "http://www.w3.org/TR/2001/REC-SVG-20010904/DTD/svg10.dtd">
<svg version="1.0" xmlns="http://www.w3.org/2000/svg"
 width="3861.000000pt" height="3861.000000pt" viewBox="0 0 3861.000000 3861.000000"
 preserveAspectRatio="xMidYMid meet">
<metadata>
Created by potrace 1.14, written by Peter Selinger 2001-2017
</metadata>
<g transform="translate(0.000000,3861.000000) scale(0.100000,-0.100000)"
fill="#000000" stroke="none">
<path d="M4085 28553 c-11 -1 -123 -4 -250 -6 -126 -3 -241 -7 -254 -10 -172
-43 -317 -102 -456 -185 -68 -41 -59 -35 -145 -104 -202 -163 -345 -370 -429
-623 -50 -151 -65 -244 -65 -415 -1 -175 5 -226 39 -356 102 -386 355 -698
710 -874 190 -95 289 -122 480 -134 154 -10 507 -17 1110 -21 319 -3 591 -7
605 -8 209 -30 352 -191 353 -397 0 -130 -26 -194 -124 -297 -58 -61 -127 -92
-224 -98 -44 -3 -710 -8 -1479 -11 -770 -2 -1402 -7 -1405 -9 -2 -3 -5 -225
-5 -494 l-1 -489 1315 4 c1653 4 1901 8 1989 30 209 52 435 173 599 320 194
174 369 481 417 729 18 96 26 400 13 495 -30 212 -149 474 -296 650 -64 77
-182 191 -234 226 -24 16 -45 31 -48 35 -8 9 -121 75 -175 102 -73 36 -212 84
-297 101 -139 28 -267 33 -1073 41 -865 9 -879 10 -957 53 -168 90 -254 306
-191 482 25 72 61 126 112 172 71 64 126 88 218 94 60 4 1974 14 2758 14 l131
0 0 493 0 494 -1361 -1 c-748 -1 -1369 -2 -1380 -3z"/>
<path d="M7509 28541 c-1 -9 -2 -410 -3 -891 l-2 -875 56 -53 c30 -29 143
-138 250 -241 107 -103 214 -205 236 -227 23 -21 127 -121 230 -221 104 -100
218 -209 254 -243 68 -64 388 -372 570 -546 58 -56 128 -123 155 -149 28 -26
137 -131 244 -234 106 -102 210 -201 230 -220 20 -19 117 -111 215 -205 98
-94 196 -187 216 -206 20 -19 76 -72 123 -117 l86 -83 93 -1 c109 -1 985 -1
1201 0 l148 1 -53 54 c-91 91 -870 885 -985 1002 -59 61 -244 250 -409 420
-623 638 -754 775 -754 786 0 5 10 19 23 32 101 106 691 710 1187 1216 223
227 441 450 485 495 44 45 173 176 286 291 113 116 208 214 212 220 4 7 -214
10 -706 10 l-713 -1 -25 -25 c-22 -21 -195 -185 -334 -315 -22 -20 -101 -95
-175 -165 -74 -70 -151 -142 -170 -160 -19 -18 -74 -69 -121 -114 -47 -44
-157 -148 -245 -231 -87 -82 -195 -184 -238 -225 -43 -41 -91 -86 -106 -100
-15 -14 -93 -88 -174 -165 -181 -171 -208 -196 -213 -191 -2 2 -5 383 -7 847
l-4 844 -531 1 c-478 1 -531 -1 -532 -15z"/>
<path d="M12334 28548 c-6 -9 3 -751 12 -963 15 -376 177 -782 434 -1090 318
-379 673 -593 1170 -701 97 -22 364 -28 1570 -38 l345 -2 -2 -95 c-2 -121 -32
-251 -79 -340 -64 -121 -215 -242 -354 -284 -48 -14 -139 -17 -690 -21 -349
-2 -1034 -4 -1522 -4 l-887 0 1 -494 0 -494 1382 3 c2210 6 1967 2 2071 31 50
14 99 29 110 34 11 5 52 21 90 36 243 94 480 276 642 495 131 177 207 348 258
581 22 101 30 271 40 903 3 154 7 381 10 505 2 124 7 396 10 605 9 565 13 782
20 1076 l7 265 -546 0 -546 0 0 -35 c-1 -20 -3 -410 -5 -868 -2 -458 -6 -837
-10 -842 -7 -13 -1591 -10 -1640 3 -139 34 -309 105 -355 148 -11 10 -22 18
-25 18 -9 0 -60 44 -141 125 -119 117 -190 234 -259 422 l-26 72 -4 373 c-2
205 -4 421 -4 479 l-1 106 -536 -1 c-294 0 -537 -3 -540 -8z"/>
<path d="M17639 28536 c0 -28 0 -4453 0 -4487 l1 -26 518 1 517 1 2 1480 c2
1651 6 2042 21 2057 13 13 285 18 1222 20 730 2 778 1 830 -16 184 -62 335
-222 387 -411 30 -113 14 -254 -45 -375 -46 -94 -159 -212 -244 -252 -125 -61
-108 -60 -883 -63 -390 -2 -717 -4 -725 -4 -13 -1 -15 -63 -15 -508 -1 -280 2
-510 6 -513 4 -3 233 -5 508 -4 346 0 504 -3 510 -10 5 -6 104 -182 221 -391
117 -209 241 -429 275 -490 34 -60 76 -135 93 -165 118 -215 199 -344 217
-348 28 -6 1136 -4 1142 2 3 2 -23 58 -57 123 -35 65 -85 161 -113 213 -27 52
-69 131 -92 175 -23 44 -73 139 -110 210 -37 72 -82 157 -100 190 -70 129
-247 480 -265 526 l-19 47 87 59 c284 190 463 385 592 641 73 146 140 358 156
493 3 30 8 65 10 79 5 31 6 278 0 305 -2 11 -7 47 -11 80 -7 55 -9 67 -19 113
-23 96 -29 120 -36 137 -5 11 -16 43 -25 70 -17 52 -98 222 -137 287 -102 170
-280 359 -449 481 -77 54 -250 149 -344 188 -47 19 -196 62 -260 75 -63 12
-87 16 -131 20 -27 3 -766 6 -1641 8 l-1593 3 -1 -21z"/>
<path d="M33857 28554 c-1 -1 -126 -4 -277 -7 -289 -6 -328 -11 -475 -61 -75
-26 -202 -84 -270 -124 -125 -73 -296 -230 -391 -358 -59 -80 -146 -233 -165
-292 -6 -20 -15 -41 -19 -47 -13 -18 -49 -159 -65 -250 -22 -129 -22 -342 1
-450 3 -11 9 -40 14 -65 22 -112 92 -292 153 -395 46 -78 145 -203 218 -276
122 -122 277 -221 484 -310 75 -32 222 -67 308 -74 126 -9 903 -21 1532 -25
l279 -1 59 -32 c154 -81 239 -213 238 -367 0 -83 -29 -176 -74 -237 -44 -60
-68 -81 -148 -128 l-64 -38 -1474 -3 c-887 -2 -1477 -7 -1480 -13 -5 -7 -6
-851 -2 -957 l1 -21 1493 2 c1386 3 1626 6 1732 21 83 11 102 16 190 46 451
153 795 531 900 992 23 101 30 176 29 326 -3 553 -338 1035 -867 1246 -175 70
-222 77 -592 89 -190 6 -599 11 -1218 15 l-328 2 -55 30 c-84 46 -169 130
-205 203 -56 114 -45 278 26 381 45 66 100 116 157 145 24 12 49 26 56 32 12
9 582 13 2805 17 l167 0 0 493 0 494 -1336 -1 c-735 -1 -1336 -2 -1337 -2z"/>
<path d="M26099 28543 c-8 -1 -293 -4 -634 -7 -617 -4 -674 -6 -770 -26 -27
-6 -59 -12 -70 -14 -41 -8 -151 -38 -195 -53 -25 -8 -49 -16 -55 -17 -5 -2
-19 -7 -30 -11 -11 -4 -54 -21 -95 -37 -345 -134 -719 -422 -945 -728 -66 -90
-85 -117 -148 -216 -22 -36 -119 -233 -147 -299 -40 -96 -108 -325 -126 -425
-3 -19 -8 -46 -11 -60 -9 -49 -11 -616 -2 -680 5 -36 11 -81 14 -100 4 -28 24
-109 49 -195 40 -145 97 -285 175 -435 40 -78 129 -224 158 -260 6 -8 33 -44
60 -80 66 -90 280 -303 384 -383 331 -255 753 -430 1114 -463 39 -3 84 -8 100
-9 85 -9 397 -18 698 -20 l338 -2 -7 301 c-4 166 -8 372 -8 458 -1 86 -5 160
-9 164 -4 5 -88 9 -185 11 -303 3 -675 13 -727 18 -82 9 -156 26 -223 51 -80
30 -256 115 -260 126 -2 4 -9 8 -14 8 -43 0 -305 252 -380 365 -94 143 -166
315 -203 485 -23 107 -28 343 -9 455 29 177 101 351 212 519 54 81 221 254
302 313 171 123 391 216 560 237 72 9 336 15 907 21 l532 5 1 -277 c0 -153 3
-485 5 -738 3 -253 7 -865 10 -1360 5 -870 10 -1143 21 -1155 3 -3 230 -5 505
-6 l499 0 0 2258 c0 1799 -3 2258 -12 2259 -30 2 -1366 4 -1379 2z"/>
<path d="M28191 28540 c-4 -3 -6 -138 -5 -300 1 -162 3 -372 3 -466 l1 -171
98 -1 c53 0 319 -1 590 -2 l492 -2 1 -847 c0 -465 0 -870 -1 -898 -1 -29 2
-53 5 -53 4 0 96 90 204 199 108 110 354 360 546 555 l350 356 2 327 c1 181 2
335 2 344 1 13 65 15 601 15 331 -1 606 1 613 4 9 4 12 116 12 473 0 460 0
467 -20 468 -80 4 -3488 3 -3494 -1z"/>
<path d="M30346 26082 c-65 -64 -233 -236 -374 -381 -141 -145 -334 -343 -429
-440 l-172 -176 -1 -531 0 -531 550 1 c379 0 551 3 553 10 7 17 3 2154 -4
2160 -3 3 -58 -47 -123 -112z"/>
<path d="M7510 25748 c-1 -112 -3 -545 -4 -963 l-1 -760 525 0 525 0 -1 482
-1 482 -74 69 c-41 39 -104 98 -141 133 -37 35 -117 111 -179 169 -61 58 -129
121 -149 140 -20 19 -92 87 -160 150 -68 63 -153 143 -189 177 -88 82 -135
123 -142 123 -4 0 -7 -91 -9 -202z"/>
<path d="M15 23542 l0 -2102 447 -447 c246 -247 946 -950 1556 -1562 l1109
-1115 614 2 c338 1 1248 2 2022 3 1273 1 1407 2 1395 17 -7 8 -58 61 -113 117
-55 57 -251 257 -435 445 -184 189 -382 391 -440 450 -119 121 -745 762 -890
910 -52 54 -253 259 -446 456 -194 198 -410 418 -480 491 -71 72 -274 279
-450 460 -177 180 -368 375 -424 433 -107 110 -701 717 -900 920 -63 65 -270
276 -460 470 -190 194 -451 461 -581 594 -130 133 -276 282 -324 331 -48 50
-238 243 -421 430 -183 187 -433 443 -556 569 l-224 229 1 -2101z"/>
<path d="M38435 25464 c-82 -84 -224 -229 -314 -321 -90 -93 -324 -332 -521
-533 -197 -201 -412 -420 -477 -486 -65 -67 -274 -281 -464 -475 -714 -729
-1183 -1208 -1409 -1440 -74 -76 -277 -283 -450 -460 -173 -177 -364 -371
-424 -433 -60 -61 -263 -268 -451 -461 -189 -192 -400 -408 -470 -480 -69 -71
-285 -292 -479 -490 -194 -198 -405 -412 -467 -477 -119 -121 -512 -524 -863
-883 -113 -115 -204 -211 -202 -212 2 -2 911 -5 2021 -7 l2017 -3 697 699
c383 384 851 856 1041 1048 190 191 541 546 780 788 239 241 471 477 516 523
l81 84 -3 2084 c-2 1147 -5 2085 -7 2086 -1 2 -69 -67 -152 -151z"/>
<path d="M3913 22442 c-79 -1 -143 -5 -143 -9 0 -3 138 -145 308 -315 169
-170 575 -578 902 -908 327 -329 1110 -1115 1739 -1746 l1144 -1148 1166 2
c641 1 2367 2 3834 3 1467 1 2667 5 2665 9 -2 4 -68 76 -148 160 -80 84 -161
170 -180 190 -67 72 -326 345 -401 425 -43 44 -91 96 -109 115 -28 30 -216
229 -345 365 -22 23 -76 81 -120 127 -44 47 -144 152 -221 234 -78 82 -156
165 -174 184 -18 19 -91 97 -164 174 -72 76 -147 155 -166 176 -19 20 -100
106 -180 190 -155 164 -175 185 -289 306 -41 43 -141 149 -222 234 -80 85
-161 171 -179 190 -28 30 -185 197 -339 359 -140 149 -202 214 -347 366 -88
94 -194 205 -234 248 l-74 79 -3791 -4 c-2084 -1 -3854 -4 -3932 -6z"/>
<path d="M12479 22148 c165 -167 398 -403 518 -525 120 -122 463 -470 763
-773 300 -303 642 -650 760 -770 118 -120 469 -476 780 -790 311 -315 653
-661 760 -770 107 -109 467 -474 800 -810 333 -337 706 -715 830 -840 802
-814 1585 -1600 1592 -1598 23 8 7141 7148 7133 7156 -2 3 -3557 6 -3865 3
l-155 -1 -217 -213 c-119 -116 -552 -545 -963 -952 -1612 -1599 -1923 -1905
-1934 -1905 -9 0 -934 932 -2807 2826 l-261 264 -2017 0 -2017 0 300 -302z"/>
<path d="M26869 22328 c-57 -61 -123 -131 -147 -156 -24 -26 -105 -112 -181
-192 -76 -80 -153 -161 -172 -181 -50 -54 -297 -314 -349 -369 -25 -26 -103
-109 -175 -185 -71 -76 -146 -155 -165 -175 -30 -31 -169 -179 -348 -369 -24
-25 -76 -80 -115 -121 -137 -144 -364 -385 -388 -411 -13 -15 -85 -91 -161
-170 -75 -79 -153 -162 -173 -184 -49 -52 -316 -334 -421 -445 -45 -47 -96
-101 -114 -120 -18 -19 -94 -100 -169 -179 -75 -79 -147 -156 -161 -171 -14
-15 -86 -91 -161 -171 -131 -138 -190 -201 -326 -347 -34 -37 -59 -69 -57 -72
3 -2 1727 -5 3831 -6 l3827 -1 1510 1514 c1942 1946 2586 2596 2580 2603 -11
10 -188 11 -4015 14 l-3847 3 -103 -109z"/>
<path d="M19 20683 c-1 -21 -2 -944 -3 -2052 l-2 -2015 105 -107 c58 -59 278
-282 488 -496 210 -213 463 -471 563 -573 100 -102 375 -381 610 -620 235
-239 490 -499 566 -576 609 -621 839 -853 843 -849 2 3 6 492 8 1087 4 1314
11 2992 12 2995 1 3 229 -229 467 -473 55 -56 241 -247 414 -424 173 -177 364
-372 424 -433 59 -62 253 -260 430 -440 176 -181 368 -377 426 -437 58 -59
254 -260 436 -446 183 -187 373 -382 424 -434 51 -52 240 -246 420 -430 180
-184 375 -384 433 -443 l105 -109 2304 4 c1266 2 2335 5 2375 8 l72 5 -137
142 c-165 171 -568 585 -759 779 -163 166 -751 766 -942 962 -73 75 -291 298
-485 495 -193 198 -409 418 -480 490 -175 180 -813 831 -1032 1054 l-179 182
-2375 0 -2375 1 -295 299 c-162 165 -477 485 -700 712 -223 226 -502 510 -620
630 -264 268 -1254 1270 -1415 1432 -64 64 -118 117 -121 117 -2 0 -5 -17 -5
-37z"/>
<path d="M37998 20118 c-632 -640 -1159 -1174 -1419 -1439 -771 -784 -1061
-1078 -1102 -1117 l-48 -46 -2362 -2 c-1299 -1 -2365 -2 -2368 -3 -6 -1 -188
-184 -376 -378 -65 -66 -278 -284 -473 -483 -195 -199 -413 -421 -484 -493
-70 -73 -287 -294 -481 -492 -194 -198 -401 -409 -460 -470 -116 -119 -759
-776 -915 -935 -171 -174 -667 -683 -744 -764 -42 -43 -74 -82 -71 -85 5 -9
754 -13 2984 -14 1633 -2 1746 -1 1766 15 21 16 116 112 396 399 141 145 691
707 819 839 255 260 807 825 885 905 78 81 664 680 855 875 366 373 795 812
885 906 61 63 113 114 115 114 3 0 6 -726 7 -1613 3 -1589 8 -2436 16 -2444 4
-4 411 403 894 893 114 117 411 418 660 670 468 475 548 557 1193 1214 212
216 394 402 406 412 l21 19 -1 2049 c-1 1127 -4 2052 -7 2055 -3 3 -269 -261
-591 -587z"/>
<path d="M8712 17549 c2 -4 113 -121 248 -260 135 -139 270 -278 300 -310 30
-31 161 -166 290 -300 129 -133 260 -268 290 -300 30 -31 156 -161 280 -289
246 -255 271 -280 600 -621 124 -128 250 -258 280 -290 162 -167 466 -482 520
-539 34 -36 164 -171 290 -300 125 -129 251 -260 280 -290 28 -30 99 -103 157
-162 l105 -106 122 121 c133 132 928 913 1118 1098 64 63 300 295 525 515 224
221 467 459 538 529 189 185 933 915 1258 1236 l280 275 -3742 0 c-2058 0
-3740 -3 -3739 -7z"/>
<path d="M22430 17539 c0 -4 22 -29 49 -55 45 -45 767 -755 1062 -1044 70 -69
311 -305 536 -526 224 -221 460 -452 523 -514 63 -62 303 -297 533 -524 230
-226 487 -478 570 -559 84 -82 243 -239 355 -349 l203 -201 51 54 c28 30 150
156 271 282 122 125 254 262 295 305 41 42 174 180 296 305 121 126 245 254
275 285 30 32 157 163 282 292 125 129 257 267 294 305 37 39 173 180 304 314
130 135 259 268 286 296 46 48 374 387 532 551 37 39 172 178 298 309 127 131
281 290 342 354 62 64 113 118 113 121 0 3 -1681 5 -3735 5 -2054 0 -3735 -3
-3735 -6z"/>
<path d="M16149 17474 c-2 -11 -4 -949 -4 -2086 1 -2034 1 -2068 21 -2086 16
-15 214 -222 399 -417 40 -42 355 -372 430 -450 44 -45 142 -148 425 -445 102
-107 237 -248 301 -314 63 -67 162 -170 220 -230 57 -60 129 -135 159 -166 30
-31 124 -129 209 -218 85 -89 189 -197 230 -240 360 -374 485 -504 603 -626
l138 -141 257 261 c219 221 604 615 908 929 43 44 164 168 269 276 254 260
716 736 801 824 37 39 185 191 329 339 282 290 355 365 516 532 l106 109 -1
2077 c0 1142 -2 2079 -5 2082 -3 2 -77 -67 -165 -155 -144 -144 -967 -958
-1430 -1414 -99 -98 -442 -437 -763 -754 -321 -317 -637 -628 -702 -692 l-119
-117 -633 634 c-348 349 -1052 1056 -1564 1570 -696 700 -932 931 -935 918z"/>
</g>
</svg>
